<svg width="32" height="32" viewBox="0 0 32 32" fill="none" xmlns="http://www.w3.org/2000/svg">
  <!-- Background circle -->
  <circle cx="16" cy="16" r="16" fill="#1A1A1A"/>
  
  <!-- Inner gradient circle -->
  <circle cx="16" cy="16" r="14" fill="url(#gradient)" stroke="#4F46E5" stroke-width="0.5"/>
  
  <!-- Letter R and J stylized -->
  <g transform="translate(6, 8)">
    <!-- R -->
    <path d="M0 0 L0 16 M0 0 L8 0 Q12 0 12 4 Q12 8 8 8 L0 8 M8 8 L12 16" stroke="#FFFFFF" stroke-width="2" stroke-linecap="round" stroke-linejoin="round" fill="none"/>
    
    <!-- J -->
    <path d="M14 0 L14 12 Q14 16 10 16 Q6 16 6 12" stroke="#6366F1" stroke-width="2" stroke-linecap="round" stroke-linejoin="round" fill="none"/>
    
    <!-- Accent dot -->
    <circle cx="18" cy="2" r="1.5" fill="#8B5CF6"/>
  </g>
  
  <!-- Code-like accent -->
  <path d="M4 26 L8 24 L4 22" stroke="#4F46E5" stroke-width="1.5" stroke-linecap="round" stroke-linejoin="round"/>
  <path d="M28 22 L24 24 L28 26" stroke="#4F46E5" stroke-width="1.5" stroke-linecap="round" stroke-linejoin="round"/>
  
  <defs>
    <linearGradient id="gradient" x1="0%" y1="0%" x2="100%" y2="100%">
      <stop offset="0%" style="stop-color:#2D1B69;stop-opacity:1" />
      <stop offset="50%" style="stop-color:#1E1B4B;stop-opacity:1" />
      <stop offset="100%" style="stop-color:#0F0F23;stop-opacity:1" />
    </linearGradient>
  </defs>
</svg>